<?xml version="1.0" encoding="UTF-8"?>
<!DOCTYPE svg PUBLIC "-//W3C//DTD SVG 1.1//EN" "http://www.w3.org/Graphics/SVG/1.1/DTD/svg11.dtd">
<!-- Creator: CorelDRAW -->
<svg xmlns="http://www.w3.org/2000/svg" xml:space="preserve" width="18.3333in" height="13.3333in" version="1.1" style="shape-rendering:geometricPrecision; text-rendering:geometricPrecision; image-rendering:optimizeQuality; fill-rule:evenodd; clip-rule:evenodd"
viewBox="0 0 387.8 282.04"
 xmlns:xlink="http://www.w3.org/1999/xlink"
 xmlns:xodm="http://www.corel.com/coreldraw/odm/2003">
 <defs>
  <style type="text/css">
   <![CDATA[
    .fil2 {fill:#04864A}
    .fil5 {fill:#09233E}
    .fil3 {fill:#0B6E40}
    .fil6 {fill:#182F47}
    .fil4 {fill:#309667}
    .fil10 {fill:#35566E}
    .fil11 {fill:#73433F}
    .fil7 {fill:#79A149}
    .fil8 {fill:#90B1C0}
    .fil18 {fill:#91A148}
    .fil13 {fill:#AB7B77}
    .fil1 {fill:#C2AE8A}
    .fil17 {fill:#D62607}
    .fil9 {fill:#DEDEDE}
    .fil19 {fill:#F23F1F}
    .fil14 {fill:#F4C428}
    .fil0 {fill:#F6E8CD}
    .fil20 {fill:#FF8B4E}
    .fil15 {fill:#FFE46E}
    .fil12 {fill:white}
    .fil16 {fill:#FFF3CC;fill-rule:nonzero}
   ]]>
  </style>
 </defs>
 <g id="Layer_x0020_1">
  <metadata id="CorelCorpID_0Corel-Layer"/>
  <polygon class="fil0" points="-0,0 387.8,0 387.8,282.04 -0,282.04 "/>
  <path class="fil1" d="M191.35 53.02c-86.63,0 -156.85,42.96 -156.85,95.95 0,52.99 70.23,95.95 156.85,95.95 86.63,0 156.85,-42.96 156.85,-95.95 0,-52.99 -70.23,-95.95 -156.85,-95.95z"/>
  <polygon class="fil2" points="387.8,148.78 387.8,281.36 386.76,282.04 150.08,282.04 78.94,173.43 306.37,24.46 "/>
  <path class="fil3" d="M118.62 234l-39.68 -60.58 172.63 -113.07c56.74,14.44 96.64,48.68 96.64,88.62 0,52.99 -70.23,95.95 -156.85,95.95 -26.25,0 -50.99,-3.95 -72.74,-10.93z"/>
  <path class="fil4" d="M387.8 190.12l0 5.18 -25.55 -38 -45.07 30.3 30.3 45.07 40.31 -27.11 0 3.48 -38.7 26.02 29.07 43.24 9.63 -6.47 0 3.48 -8.01 5.39 0.9 1.33 -8.06 0 3.15 -2.12 -29.07 -43.24 -41.67 28.02 11.66 17.34 -3.48 0 -10.57 -15.73 -23.39 15.73 -5.18 0 26.95 -18.12 -30.3 -45.07 -45.07 30.3 22.11 32.89 -3.48 0 -21.03 -31.28 -43.24 29.07 1.48 2.2 -3.48 0 -0.4 -0.59 -0.88 0.59 -5.18 0 4.44 -2.99 -28.02 -41.67 -18.85 12.68 -1.58 -2.42 18.82 -12.66 -30.3 -45.07 -18.28 12.29 -1.58 -2.42 18.25 -12.27 -17.44 -25.93 2.42 -1.58 17.42 25.9 43.24 -29.07 -17.07 -25.38 2.42 -1.58 17.05 25.35 45.07 -30.3 -16.68 -24.81 2.42 -1.58 16.66 24.78 41.67 -28.02 -16.32 -24.28 2.42 -1.58 16.3 24.25 45.07 -30.3 -15.94 -23.7 2.42 -1.58 15.92 23.67 20.35 -13.68 1.58 2.42 -20.32 13.66 30.3 45.07 19.77 -13.3 1.58 2.42 -19.75 13.28 28.02 41.67 19.24 -12.94 1.58 2.42 -19.21 12.92 23.15 34.43zm-269.34 -1.82l30.3 45.07 43.24 -29.07 -30.3 -45.07 -43.24 29.07zm45.64 -30.69l30.3 45.07 45.07 -30.3 -30.3 -45.07 -45.07 30.3zm47.47 -31.92l30.3 45.07 41.67 -28.02 -30.3 -45.07 -41.67 28.02zm44.07 -29.63l30.3 45.07 45.07 -30.3 -30.3 -45.07 -45.07 30.3zm-105.26 139.7l28.02 41.67 43.24 -29.07 -28.02 -41.67 -43.24 29.07zm45.64 -30.69l28.02 41.67 45.07 -30.3 -28.02 -41.67 -45.07 30.3zm47.47 -31.92l28.02 41.67 41.67 -28.02 -28.02 -41.67 -41.67 28.02zm44.07 -29.63l28.02 41.67 45.07 -30.3 -28.02 -41.67 -45.07 30.3zm-14.44 73.7l30.3 45.07 41.67 -28.02 -30.3 -45.07 -41.67 28.02z"/>
  <path class="fil2" d="M344.75 169.07l-27.56 18.53 7.81 11.62c-0.69,0.69 -1.39,1.36 -2.11,2.04l-8.1 -12.04 -41.67 28.02 7.23 10.76c-0.9,0.38 -1.81,0.76 -2.73,1.13l-6.9 -10.27 -32.23 21.67c-2.32,0.45 -4.66,0.86 -7.02,1.24l37.64 -25.31 -28.02 -41.67 -45.07 30.3 25.59 38.06c-1.08,0.13 -2.15,0.25 -3.24,0.37l-24.75 -36.81 -43.24 29.07 4.39 6.53c-1.3,-0.19 -2.6,-0.39 -3.89,-0.6l-2.91 -4.32 -4.46 3c-1.33,-0.26 -2.65,-0.53 -3.97,-0.81l6.82 -4.58 -30.3 -45.07 -18.28 12.29 -1.58 -2.42 18.25 -12.27 -17.44 -25.93 2.42 -1.58 17.42 25.9 43.24 -29.07 -17.07 -25.38 0.76 -0.5 1.66 -1.09 17.05 25.35 45.07 -30.3 -16.68 -24.81 2.42 -1.58 16.66 24.78 41.67 -28.02 -16.32 -24.28 2.42 -1.58 16.3 24.25 31.72 -21.33c1.02,0.47 2.04,0.95 3.04,1.44l-33.14 22.29 30.3 45.07 45.07 -30.3 -11.63 -17.3c3.8,3.28 7.28,6.71 10.4,10.28l3.63 5.41 0.49 -0.33c0.58,0.77 1.15,1.56 1.7,2.34l-0.57 0.39 6.67 9.93c1.86,3.82 3.34,7.75 4.42,11.75l-13.49 -20.06 -45.07 30.3 28.02 41.67 30.53 -20.53c-0.4,1.48 -0.85,2.94 -1.35,4.39zm-226.28 19.23l30.3 45.07 43.24 -29.07 -30.3 -45.07 -43.24 29.07zm45.64 -30.69l30.3 45.07 45.07 -30.3 -30.3 -45.07 -45.07 30.3zm47.47 -31.92l30.3 45.07 41.67 -28.02 -30.3 -45.07 -41.67 28.02zm31.92 47.47l28.02 41.67 41.67 -28.02 -28.02 -41.67 -41.67 28.02z"/>
  <path class="fil5" d="M197.53 45.08c-86.63,0 -156.85,42.96 -156.85,95.95 0,52.99 70.23,95.95 156.85,95.95 86.63,0 156.85,-42.96 156.85,-95.95 0,-52.99 -70.23,-95.95 -156.85,-95.95z"/>
  <path class="fil6" d="M197.53 45.08c-1.02,0 -2.03,0.01 -3.05,0.02l0 191.86c1.01,0.01 2.03,0.02 3.05,0.02 0.26,0 0.52,-0.01 0.79,-0.01l0 -191.89c-0.26,-0 -0.52,-0.01 -0.79,-0.01zm-17.39 0.59c-1.28,0.09 -2.56,0.18 -3.83,0.29l0 190.15c1.27,0.11 2.55,0.2 3.83,0.29l0 -190.73zm-18.18 1.89c-1.28,0.18 -2.56,0.37 -3.83,0.58l0 185.8c1.27,0.2 2.55,0.39 3.83,0.58l0 -186.95zm-18.18 3.3c-1.29,0.29 -2.56,0.58 -3.83,0.89l0 178.57c1.27,0.31 2.55,0.6 3.83,0.89l0 -180.35zm-18.18 4.88c-1.29,0.41 -2.57,0.83 -3.83,1.26l0 168.07c1.27,0.43 2.54,0.85 3.83,1.26l0 -170.59zm-18.18 6.74c-1.29,0.55 -2.57,1.12 -3.83,1.7l0 153.71c1.26,0.58 2.54,1.14 3.83,1.7l0 -157.11zm-18.18 9.12c-1.3,0.76 -2.58,1.54 -3.83,2.32l0 134.22c1.26,0.79 2.53,1.56 3.83,2.32l0 -138.86zm-18.18 12.65c-1.31,1.09 -2.59,2.2 -3.83,3.33l0 106.91c1.24,1.13 2.52,2.24 3.83,3.33l0 -113.57zm-18.18 19.56c-1.39,2.02 -2.67,4.07 -3.83,6.16l0 62.13c1.17,2.09 2.44,4.14 3.83,6.16l0 -74.44zm159.74 132.73c1.28,-0.08 2.56,-0.16 3.83,-0.25l0 -190.51c-1.27,-0.09 -2.55,-0.18 -3.83,-0.25l0 191.01zm18.18 -1.73c1.28,-0.17 2.56,-0.35 3.83,-0.54l0 -186.48c-1.27,-0.19 -2.55,-0.37 -3.83,-0.54l0 187.56zm18.18 -3.12c1.29,-0.27 2.56,-0.56 3.83,-0.85l0 -179.62c-1.27,-0.29 -2.55,-0.58 -3.83,-0.85l0 181.32zm18.18 -4.67c1.29,-0.39 2.57,-0.79 3.83,-1.2l0 -169.57c-1.27,-0.41 -2.55,-0.81 -3.83,-1.2l0 171.98zm18.18 -6.48c1.29,-0.54 2.57,-1.09 3.83,-1.64l0 -155.73c-1.27,-0.56 -2.54,-1.11 -3.83,-1.64l0 159.02zm18.18 -8.79c1.3,-0.73 2.58,-1.47 3.83,-2.23l0 -136.98c-1.26,-0.76 -2.53,-1.5 -3.83,-2.23l0 141.44zm18.18 -12.1c1.31,-1.04 2.59,-2.09 3.83,-3.16l0 -110.92c-1.24,-1.07 -2.52,-2.12 -3.83,-3.16l0 117.23zm18.18 -18.29c1.37,-1.8 2.65,-3.63 3.83,-5.49l0 -69.67c-1.19,-1.86 -2.47,-3.69 -3.83,-5.49l0 80.66z"/>
  <path class="fil7" d="M229.83 55.66c0,0 -5.8,5.84 -5.79,7.96 0.01,2.13 4.58,5.4 5,9.81l-2.59 -0.32c0,0 1.52,3.27 1.49,6.64l-1.5 -0.1c0,0 1.29,3.74 1.14,4.97l-1.52 -1.06c0,0 -0.58,3.27 -1.33,3.89 0,0 -1.42,-3.52 -1.12,-5.67l-1.7 1.69c0,0 -0.73,-4.22 0.11,-6.5l-2.42 2.32c0,0 -0.98,-1.86 0.7,-6.65 1.68,-4.79 2.57,-6.46 2.02,-7.31 -0.55,-0.85 -3.37,5.5 -3.86,7.27 -0.49,1.77 0.2,9 -0.87,11.39l-1.38 -1.1c0,0 0.22,2.96 -3.02,6.08 0,0 -1.89,-1.94 -1.42,-4.16 0,0 -1.75,4.57 -3.71,6.16 0,0 -0.44,-3.4 -0.01,-5.14 0,0 -2.41,4.83 -4.4,6.33l-0.04 -1.91c0,0 -2.25,1.61 -4.37,1.75 0,0 1.17,-2.6 2.44,-3.7l-1.34 -0.71c0,0 1.61,-2.25 4.18,-3.26l-1.26 -0.65c0,0 3.76,-5.17 8.18,-7.28 0,0 -0.08,-1.06 -3.55,1.22 -3.47,2.27 -4.67,2.54 -4.67,2.54l0.24 -1.62c0,0 -1.49,0.87 -3.44,0.52 0,0 1.6,-3.01 6.26,-4.33l-0.87 -0.52c0,0 1.72,-1.08 4.98,-1.71 3.26,-0.63 4.26,-1.39 6.73,-3.13 2.47,-1.74 4.29,-4.49 4.25,-4.98 -0.04,-0.49 -6.11,2.68 -7.92,4.32 -1.81,1.63 -3.22,1.53 -3.22,1.53l0.5 -1.25c0,0 -2.78,1.05 -4.71,0.65 0,0 1.46,-1.78 2.54,-2.36l-0.68 -0.86c0,0 1.13,-0.81 3.6,-0.96 2.47,-0.15 -0.47,-0.89 -1.81,-0.7 -1.34,0.19 -3.73,0.97 -4.68,0.73l0.74 -1.51c0,0 -1.31,-1.06 -2.03,-2.9 0,0 1.6,-1.06 3.81,-0.83l0.05 -1c0,0 3.95,-0.42 7.38,1.57l0.03 -1.09c0,0 2.44,1.42 4.44,2.49 2,1.07 4.19,-0.98 5.52,-2.47 1.33,-1.5 5.08,-5.74 4.86,-4.07z"/>
  <path class="fil7" d="M192 95.73c0,0 -4.53,-6.87 -4.1,-8.95 0.43,-2.08 5.56,-4.39 6.84,-8.63l-2.6 -0.2c0,0 2.14,-2.9 2.78,-6.21l-1.49 -0.19c0,0 2,-3.41 2.1,-4.65l-1.7 0.74c0,0 0.08,-3.32 -0.53,-4.08 0,0 -2.09,3.17 -2.22,5.34l-1.33 -1.99c0,0 -1.55,3.99 -1.17,6.39l-1.92 -2.75c0,0 -1.33,1.63 -0.63,6.66 0.7,5.03 1.24,6.84 0.54,7.56 -0.7,0.72 -2.22,-6.06 -2.35,-7.89 -0.13,-1.83 1.98,-8.79 1.4,-11.34l-1.57 0.81c0,0 0.81,-2.86 -1.76,-6.56 0,0 -2.24,1.53 -2.21,3.8 0,0 -0.81,-4.83 -2.41,-6.77 0,0 -1.11,3.24 -1.02,5.04 0,0 -1.41,-5.22 -3.06,-7.07l-0.42 1.86c0,0 -1.89,-2.03 -3.94,-2.58 0,0 0.64,2.78 1.66,4.11l-1.45 0.44c0,0 1.13,2.52 3.45,4.02l-1.36 0.39c0,0 2.66,5.81 6.57,8.75 0,0 -0.28,1.02 -3.23,-1.89 -2.95,-2.91 -4.08,-3.41 -4.08,-3.41l-0.08 1.63c0,0 -1.29,-1.15 -3.26,-1.19 0,0 0.97,3.27 5.28,5.49l-0.96 0.33c0,0 1.47,1.4 4.55,2.66 3.08,1.26 3.9,2.21 5.98,4.4 2.08,2.19 3.31,5.25 3.18,5.73 -0.13,0.47 -5.46,-3.84 -6.91,-5.8 -1.45,-1.96 -2.85,-2.13 -2.85,-2.13l0.24 1.32c0,0 -2.52,-1.58 -4.48,-1.57 0,0 1.08,2.03 2.02,2.82l-0.83 0.71c0,0 0.95,1.02 3.34,1.65 2.39,0.64 -0.63,0.78 -1.91,0.33 -1.28,-0.45 -3.46,-1.69 -4.44,-1.64l0.43 1.63c0,0 -1.5,0.78 -2.56,2.44 0,0 1.36,1.35 3.57,1.56l-0.15 0.99c0,0 3.79,1.2 7.55,-0.08l-0.19 1.07c0,0 2.67,-0.91 4.84,-1.56 2.17,-0.65 3.91,1.79 4.92,3.52 1.01,1.73 3.85,6.63 3.96,4.95z"/>
  <path class="fil7" d="M109.7 108.61c0,0 3.87,-7.26 3.25,-9.3 -0.62,-2.03 -5.95,-3.85 -7.62,-7.95l2.57 -0.44c0,0 -2.4,-2.69 -3.35,-5.93l1.47 -0.33c0,0 -2.31,-3.21 -2.53,-4.43l1.76 0.57c0,0 -0.39,-3.3 0.15,-4.11 0,0 2.37,2.97 2.71,5.11l1.14 -2.1c0,0 1.92,3.83 1.77,6.26l1.65 -2.92c0,0 1.48,1.5 1.25,6.57 -0.22,5.07 -0.6,6.93 0.17,7.58 0.77,0.65 1.64,-6.24 1.6,-8.08 -0.04,-1.84 -2.79,-8.56 -2.45,-11.15l1.64 0.66c0,0 -1.07,-2.77 1.14,-6.69 0,0 2.37,1.32 2.56,3.57 0,0 0.36,-4.88 1.77,-6.96 0,0 1.41,3.12 1.49,4.92 0,0 0.92,-5.33 2.39,-7.33l0.59 1.81c0,0 1.69,-2.2 3.68,-2.93 0,0 -0.37,2.82 -1.27,4.25l1.49 0.3c0,0 -0.89,2.62 -3.06,4.33l1.39 0.26c0,0 -2.11,6.03 -5.73,9.33 0,0 0.38,0.99 3.04,-2.19 2.67,-3.18 3.74,-3.78 3.74,-3.78l0.23 1.62c0,0 1.18,-1.27 3.14,-1.49 0,0 -0.66,3.34 -4.74,5.96l0.98 0.24c0,0 -1.33,1.53 -4.28,3.07 -2.94,1.54 -3.68,2.56 -5.54,4.94 -1.86,2.38 -2.81,5.54 -2.63,6 0.18,0.46 5.08,-4.33 6.34,-6.42 1.26,-2.09 2.64,-2.39 2.64,-2.39l-0.12 1.34c0,0 2.36,-1.81 4.32,-1.98 0,0 -0.88,2.13 -1.75,2.99l0.89 0.63c0,0 -0.85,1.1 -3.17,1.96 -2.32,0.86 0.7,0.71 1.93,0.15 1.23,-0.57 3.29,-2 4.27,-2.05l-0.28 1.66c0,0 1.56,0.63 2.78,2.19 0,0 -1.23,1.47 -3.41,1.89l0.24 0.97c0,0 -3.66,1.55 -7.52,0.63l0.29 1.05c0,0 -2.74,-0.66 -4.97,-1.1 -2.22,-0.45 -3.73,2.14 -4.57,3.96 -0.84,1.82 -3.21,6.96 -3.48,5.3z"/>
  <path class="fil7" d="M70.33 93.86c0,0 7.46,3.48 8.18,5.48 0.72,2 -2.44,6.65 -1.32,10.93l2.32 -1.19c0,0 -0.3,3.59 0.88,6.75l1.37 -0.61c0,0 0.08,3.95 0.64,5.06l1.06 -1.52c0,0 1.67,2.87 2.59,3.2 0,0 0.12,-3.8 -0.9,-5.71l2.17 1c0,0 -0.77,-4.21 -2.35,-6.06l3.07 1.34c0,0 0.28,-2.09 -2.94,-6.01 -3.22,-3.92 -4.64,-5.18 -4.42,-6.16 0.22,-0.98 5.06,4 6.13,5.5 1.07,1.49 2.91,8.52 4.74,10.39l0.92 -1.51c0,0 0.81,2.86 4.93,4.67 0,0 1.1,-2.47 -0.1,-4.39 0,0 3.22,3.69 5.6,4.5 0,0 -0.75,-3.34 -1.77,-4.83 0,0 3.93,3.71 6.31,4.42l-0.62 -1.8c0,0 2.67,0.74 4.7,0.13 0,0 -1.99,-2.03 -3.57,-2.63l1.01 -1.13c0,0 -2.28,-1.56 -5.05,-1.62l0.96 -1.04c0,0 -5.31,-3.56 -10.18,-4.02 0,0 -0.29,-1.02 3.75,-0.08 4.04,0.94 5.26,0.77 5.26,0.77l-0.79 -1.44c0,0 1.7,0.3 3.4,-0.7 0,0 -2.54,-2.28 -7.37,-1.91l0.64 -0.79c0,0 -1.99,-0.42 -5.27,0.11 -3.28,0.54 -4.48,0.16 -7.4,-0.62 -2.92,-0.78 -5.57,-2.74 -5.71,-3.22 -0.13,-0.47 6.66,0.41 8.93,1.32 2.26,0.91 3.55,0.33 3.55,0.33l-0.9 -1c0,0 2.97,0.03 4.64,-1.01 0,0 -1.98,-1.17 -3.19,-1.34l0.34 -1.04c0,0 -1.34,-0.37 -3.71,0.34 -2.37,0.71 0.13,-0.99 1.46,-1.28 1.33,-0.28 3.83,-0.37 4.64,-0.93l-1.22 -1.16c0,0 0.87,-1.45 0.9,-3.42 0,0 -1.87,-0.44 -3.86,0.54l-0.39 -0.92c0,0 -3.86,0.96 -6.39,4.02l-0.4 -1.01c0,0 -1.8,2.17 -3.31,3.87 -1.51,1.69 -4.27,0.53 -6.03,-0.42 -1.77,-0.95 -6.75,-3.64 -5.96,-2.15z"/>
  <path class="fil7" d="M152.64 104.82c0,0 -1.79,-8.03 -0.65,-9.83 1.14,-1.79 6.76,-2.12 9.46,-5.63l-2.36 -1.11c0,0 3.03,-1.95 4.8,-4.82l-1.32 -0.71c0,0 3.08,-2.48 3.62,-3.6l-1.85 0.08c0,0 1.26,-3.07 0.95,-4 0,0 -3.08,2.23 -3.97,4.2l-0.54 -2.33c0,0 -2.87,3.18 -3.37,5.56l-0.81 -3.25c0,0 -1.82,1.05 -2.96,6 -1.14,4.95 -1.27,6.84 -2.19,7.26 -0.91,0.43 0.08,-6.45 0.61,-8.21 0.53,-1.76 4.98,-7.51 5.34,-10.1l-1.76 0.2c0,0 1.77,-2.39 0.69,-6.76 0,0 -2.63,0.64 -3.42,2.76 0,0 0.96,-4.8 0.15,-7.18 0,0 -2.19,2.64 -2.75,4.35 0,0 0.54,-5.38 -0.35,-7.7l-1.05 1.59c0,0 -1.04,-2.57 -2.77,-3.81 0,0 -0.39,2.82 0.1,4.43l-1.51 -0.11c0,0 0.16,2.76 1.8,4.99l-1.41 -0.12c0,0 0.42,6.38 3.03,10.52 0,0 -0.63,0.85 -2.35,-2.92 -1.72,-3.77 -2.6,-4.64 -2.6,-4.64l-0.66 1.5c0,0 -0.8,-1.53 -2.63,-2.27 0,0 -0.26,3.4 2.98,7.01l-1.01 -0.03c0,0 0.88,1.83 3.3,4.1 2.43,2.27 2.86,3.45 4.02,6.24 1.16,2.79 1.23,6.09 0.94,6.48 -0.29,0.4 -3.74,-5.53 -4.4,-7.88 -0.66,-2.35 -1.91,-3.01 -1.91,-3.01l-0.24 1.32c0,0 -1.79,-2.37 -3.63,-3.06 0,0 0.28,2.28 0.89,3.35l-1.03 0.37c0,0 0.53,1.29 2.54,2.73 2.01,1.44 -0.87,0.5 -1.9,-0.38 -1.04,-0.88 -2.64,-2.81 -3.57,-3.11l-0.18 1.68c0,0 -1.68,0.19 -3.26,1.37 0,0 0.79,1.75 2.78,2.73l-0.49 0.87c0,0 3.12,2.47 7.08,2.61l-0.55 0.93c0,0 2.82,0.1 5.08,0.26 2.26,0.16 3.02,3.06 3.35,5.04 0.33,1.98 1.24,7.56 1.94,6.04z"/>
  <path class="fil8" d="M75.94 136.1c-14.13,-12.51 -31.97,-18.91 -48.42,-14.48 0,0 8.77,18.13 32.72,21.89 0,0 -31.74,5.5 -38.29,19.41 25.39,7.26 45.44,-0.92 55.09,-15.21l-1.09 -11.61z"/>
  <path class="fil9" d="M347.65 140.8c0,0 -35.6,-39.22 -115.3,-42.08 -79.7,-2.86 -172.12,44.78 -172.12,44.78 0,0 95.51,25.62 158.65,24.6 63.14,-1.02 114.84,-12.97 128.76,-27.31z"/>
  <path class="fil8" d="M347.65 140.8c0,0 -35.6,-39.22 -115.3,-42.08 -79.7,-2.86 -172.12,44.78 -172.12,44.78 0,0 207.55,-13.59 287.41,-2.7z"/>
  <path class="fil10" d="M281.36 105.79c-2.78,-0.74 -5.65,-1.44 -8.62,-2.08 3.15,6.43 5.81,14.63 6.19,17.68 0.79,6.47 -3.95,12.52 -1.9,12.9 2.05,0.38 5.99,-6.46 5.3,-13.09 -0.69,-6.64 1.78,-7.51 3.01,-10.11 0.97,-2.05 -2.14,-2.14 -3.98,-5.29zm-19.35 -4.14c-1.14,-0.19 -2.3,-0.37 -3.47,-0.54 -0.6,4.65 -1.4,9.67 -1,12.82 0.94,7.52 9.54,10.31 10.4,14.51 0.86,4.19 -0.75,5.82 0.73,6.18 1.48,0.36 4.56,-6.63 0.14,-12.18 -4.07,-5.11 -9.26,-9.62 -6.8,-20.78zm-11.5 -1.6c-2.21,-0.25 -4.46,-0.47 -6.75,-0.66 -0.61,4.6 -2.33,10.74 -0.73,14.89 2.87,7.47 -0.05,12.29 -0.6,16.32 -0.55,4.04 8.19,4.98 11.19,3.94 3,-1.04 -4.67,-0.78 -3.33,-6.01 1.34,-5.24 3.68,-6.48 1.2,-13.96 -1.24,-3.74 -1.66,-9.49 -0.98,-14.52zm-15.42 -1.21c-0.91,-0.04 -1.81,-0.09 -2.73,-0.12 -4.07,-0.15 -8.17,-0.16 -12.29,-0.05 0.85,1.73 1.67,3.75 2.59,5.22 2.25,3.6 6.26,8.34 4.52,16.97 -1.75,8.63 0.54,13.44 2.59,13.5 2.05,0.06 1.03,-0.8 1.21,-5.44 0.18,-4.64 5.77,-9.25 4.59,-17.89 -0.6,-4.38 -1.08,-8.83 -0.48,-12.19zm-20.65 0.05c-3.27,0.17 -6.55,0.4 -9.83,0.7 0.56,2.42 1.74,6.85 0.66,11.71 -1.23,5.55 -1,6.87 4.29,11.71 5.29,4.85 1.77,11.2 4.61,12.96 2.84,1.76 3.82,-2.85 2.3,-9.11 -1.52,-6.26 -5.4,-9.87 -2.8,-13.95 1.91,-2.99 0.47,-9.78 0.77,-14.02zm-16.81 1.43c-1.53,0.18 -3.06,0.38 -4.59,0.58 -0.34,3.37 -2.08,8.56 -2.01,12.8 0.1,6.93 0.23,8.99 6.32,12.43 6.09,3.44 5.36,8.19 6.69,8.75 1.34,0.56 2.59,-3.79 0.12,-7.75 -2.47,-3.95 -7.87,-7.77 -6.2,-14.82 0.95,-4.02 0.23,-8.49 -0.32,-12zm-9.39 1.27c-4.65,0.71 -9.28,1.52 -13.87,2.42 0.77,1.53 1.42,3.49 1.67,5.68 0.91,7.95 4.06,7.44 5.11,2.32 1.05,-5.12 1.23,-2.01 5.07,-6.27 1.32,-1.47 1.79,-2.9 2.02,-4.15zm-17.32 3.12c-3.48,0.72 -6.93,1.49 -10.34,2.3 -0.29,2.47 -1.71,6.39 -0.63,9.69 1.64,5.06 4.83,3.65 4.37,10.97 -0.46,7.33 -0.48,6.73 -2.3,8.07 -1.83,1.34 -0.08,2.27 2.37,-0.08 2.45,-2.34 3.42,-3.91 5.63,-3.39 2.21,0.52 4.82,0.49 3.83,-1.3 -0.99,-1.79 -4.28,-2.32 -3.98,-6.46 0.3,-4.13 3.3,-10.72 1.18,-19.28 -0.05,-0.18 -0.09,-0.36 -0.12,-0.53zm-17.71 4.12c-3.68,0.95 -7.31,1.94 -10.88,2.96 0.61,1.11 0.89,2.4 0.6,3.48 -0.86,3.1 -1.27,7.4 0.09,10.17 1.36,2.76 7.6,4.87 7.45,9.18 -0.15,4.31 1.31,3.05 1.46,1.7 0.15,-1.35 0.79,-2.76 -0.58,-6.37 -1.36,-3.61 4.76,-6.09 1.78,-13.66 -1.18,-3 -0.89,-5.53 0.09,-7.46zm-17.27 4.84c-5.58,1.69 -10.99,3.44 -16.17,5.21 -0.32,1.99 -1.47,5.08 -1.13,6.91 0.58,3.18 3.6,3.23 2.91,5.99 -0.69,2.75 -1.02,6.64 0.08,6.77 1.1,0.12 0.05,-3.16 1.6,-4.28 1.55,-1.13 2.38,3.06 5.38,3.4 3,0.34 5.98,-0.75 5.73,-2.39 -0.25,-1.64 -4.53,1.16 -5.81,-4 -1.28,-5.17 2.47,-4.31 1.68,-7.19 -0.79,-2.88 -5.78,-0.97 -5.18,-4.06 0.59,-3.09 8.85,-0.43 9.48,2.2 0.63,2.64 -0.73,3.91 0.52,6.12 1.25,2.21 0.21,9.24 1.63,10.17 1.42,0.92 1.53,-5.96 0.88,-10.31 -0.65,-4.35 1.86,-5.71 0.35,-10.09 -0.72,-2.09 -1.56,-3.37 -1.95,-4.44zm-20.62 6.76c-6.23,2.19 -12.1,4.39 -17.52,6.52 0.16,1.71 0.48,3.42 1.55,4.27 2.75,2.18 2.65,5.68 1.66,7.14 -0.99,1.46 1.29,1.37 2.35,0.71 1.06,-0.67 2,-2.48 0.38,-6.89 -1.62,-4.41 2.14,-6.79 4.71,-7.29 2.56,-0.5 -1.47,5.15 1.52,8.29 2.99,3.14 3.46,3.29 3.03,5.36 -0.43,2.06 2.55,1.81 2.13,-1.87 -0.42,-3.69 -3.71,-3.27 -2.57,-6.88 0.76,-2.41 1.33,-6.44 2.74,-9.36zm-21.29 8.02c-1.1,0.44 -2.19,0.88 -3.25,1.32 0.71,1.84 1.15,3.7 0.96,5.2 -0.63,4.88 2.9,4.24 2.78,0.36 -0.06,-1.77 -0.4,-4.42 -0.49,-6.88z"/>
  <path class="fil11" d="M293.61 118.79c-18.56,13.7 -24.92,51.48 54.04,22.02 0,0 -45.41,13.83 -58.41,3.98 -8.73,-6.61 -1.4,-18.73 4.37,-26z"/>
  <path class="fil12" d="M314.77 125.15c4.15,0.47 7.13,4.21 6.66,8.35 -0.47,4.15 -4.21,7.13 -8.35,6.66 -4.15,-0.47 -7.13,-4.21 -6.66,-8.35 0.47,-4.15 4.21,-7.13 8.35,-6.66z"/>
  <path class="fil5" d="M314.45 128.01c2.57,0.29 4.41,2.61 4.12,5.17 -0.29,2.57 -2.61,4.41 -5.17,4.12 -2.57,-0.29 -4.41,-2.61 -4.12,-5.17 0.29,-2.57 2.61,-4.41 5.17,-4.12z"/>
  <path class="fil8" d="M280.68 141.44c-6.64,-0.31 -37.51,5.46 -41.78,10.27 -1.94,2.18 7.37,5.34 16.54,4.9 12.03,-0.58 25.12,-6.07 25.24,-15.17z"/>
  <path class="fil13" d="M233.61 104.67l-0.05 55.09c0,0 -29.95,-28.12 0.05,-55.09z"/>
  <path class="fil13" d="M204.93 104.67l-0.05 55.09c0,0 -29.57,-28.12 0.05,-55.09z"/>
  <path class="fil13" d="M177.75 111.5l-0.04 49.21c0,0 -25.13,-25.12 0.04,-49.21z"/>
  <path class="fil13" d="M153.64 116.66l-0.03 38.88c0,0 -19.22,-19.85 0.03,-38.88z"/>
  <path class="fil14" d="M233.6 114.51c-0.17,-0 -0.35,-0.01 -0.52,-0.01 -10.62,-0.02 -19.24,8.58 -19.25,19.2 -0.02,10.62 8.58,19.24 19.2,19.25 0.17,0 0.35,-0 0.52,-0.01l0.06 -38.44z"/>
  <path class="fil15" d="M233.59 117.37c-0.17,-0.01 -0.35,-0.01 -0.52,-0.01 -9.04,-0.01 -16.38,7.31 -16.4,16.35 -0.01,9.04 7.31,16.38 16.35,16.4 0.17,0 0.35,-0 0.52,-0.01l0.05 -32.73z"/>
  <polygon class="fil16" points="233.24,135.78 221.13,144.86 221.78,145.72 233.89,136.64 "/>
  <polygon class="fil16" points="233.57,133.19 216.68,133.17 216.68,134.25 233.57,134.27 "/>
  <polygon class="fil16" points="233.9,130.77 221.81,121.66 221.17,122.52 233.25,131.63 "/>
  <path class="fil14" d="M205.02 113.38c-0.17,-0 -0.35,-0.01 -0.52,-0.01 -10.62,-0.02 -19.24,8.58 -19.25,19.2 -0.02,10.62 8.58,19.24 19.2,19.25 0.17,0 0.35,-0 0.52,-0.01l0.06 -38.44z"/>
  <path class="fil15" d="M205.01 116.23c-0.17,-0.01 -0.35,-0.01 -0.52,-0.01 -9.04,-0.01 -16.38,7.31 -16.4,16.35 -0.01,9.04 7.31,16.38 16.35,16.4 0.17,0 0.35,-0 0.52,-0.01l0.05 -32.73z"/>
  <polygon class="fil16" points="204.66,134.65 192.55,143.72 193.19,144.58 205.31,135.51 "/>
  <polygon class="fil16" points="204.99,132.05 188.1,132.03 188.09,133.11 204.99,133.13 "/>
  <polygon class="fil16" points="205.31,129.63 193.23,120.52 192.58,121.38 204.67,130.49 "/>
  <path class="fil14" d="M177.74 119.91c-0.15,-0 -0.29,-0.01 -0.44,-0.01 -8.96,-0.01 -16.23,7.24 -16.24,16.2 -0.01,8.96 7.24,16.23 16.2,16.24 0.15,0 0.29,-0 0.44,-0.01l0.05 -32.43z"/>
  <path class="fil15" d="M177.74 122.32c-0.15,-0 -0.29,-0.01 -0.44,-0.01 -7.63,-0.01 -13.82,6.16 -13.83,13.79 -0.01,7.63 6.16,13.82 13.79,13.83 0.15,0 0.29,-0 0.44,-0.01l0.04 -27.61z"/>
  <polygon class="fil16" points="177.45,137.85 167.23,145.51 167.77,146.23 177.99,138.58 "/>
  <polygon class="fil16" points="177.72,135.66 163.47,135.64 163.47,136.55 177.72,136.57 "/>
  <polygon class="fil16" points="178,133.62 167.8,125.93 167.26,126.66 177.45,134.35 "/>
  <path class="fil14" d="M153.65 124.15c-0.11,-0 -0.22,-0 -0.33,-0.01 -6.77,-0.01 -12.26,5.47 -12.27,12.23 -0.01,6.77 5.47,12.26 12.23,12.27 0.11,0 0.22,-0 0.33,-0l0.04 -24.5z"/>
  <path class="fil15" d="M153.64 125.97c-0.11,-0 -0.22,-0.01 -0.33,-0.01 -5.76,-0.01 -10.44,4.66 -10.45,10.42 -0.01,5.76 4.66,10.44 10.42,10.45 0.11,0 0.22,-0 0.33,-0.01l0.03 -20.86z"/>
  <polygon class="fil16" points="153.42,137.7 145.7,143.49 146.11,144.04 153.83,138.25 "/>
  <polygon class="fil16" points="153.63,136.05 142.86,136.04 142.86,136.73 153.63,136.74 "/>
  <polygon class="fil16" points="153.84,134.51 146.14,128.7 145.72,129.25 153.42,135.06 "/>
  <path class="fil17" d="M306.92 190.51c0,0 1.6,-5.49 -5.48,-6.52 -7.07,-1.03 -12.57,-5.69 -19.48,-7.6 -6.91,-1.92 -27.99,-4.47 -29.96,-0.91 -1.97,3.56 24.49,12.52 31.02,17.95 6.53,5.43 14.09,11.46 18.47,8.54 4.38,-2.92 5.43,-11.46 5.43,-11.46z"/>
  <path class="fil18" d="M307.06 189.62c0,0 0.59,3.95 2.14,4.91 1.54,0.96 5.76,0.98 6.06,2.42 0.3,1.43 -4.59,2.71 -7.02,2.38 -2.42,-0.33 -3.69,-1.03 -3.69,-1.03 0,0 2.3,-5.42 2.51,-8.67z"/>
  <path class="fil19" d="M303.53 192.55c0,0 3.3,-3.79 -1.82,-5.36 -5.12,-1.56 -7.62,-3.67 -15.96,-6.79 -8.34,-3.13 -28.82,-5.56 -29.59,-4.72 -0.77,0.84 21.38,4.67 27.24,8.41 5.87,3.73 18.79,11.67 20.13,8.46z"/>
  <path class="fil14" d="M140.54 168.9c-0.16,0.22 -0.32,0.43 -0.48,0.66 -9.52,13.51 -6.28,32.17 7.23,41.69 13.51,9.52 32.17,6.28 41.69,-7.23 0.16,-0.22 0.31,-0.45 0.46,-0.67l-48.9 -34.45z"/>
  <path class="fil15" d="M144.17 171.46c-0.16,0.22 -0.32,0.43 -0.48,0.65 -8.1,11.5 -5.35,27.4 6.15,35.5 11.5,8.1 27.4,5.35 35.5,-6.15 0.16,-0.22 0.31,-0.45 0.46,-0.67l-41.63 -29.33z"/>
  <polygon class="fil16" points="167.31,188.37 168.04,211.92 169.71,211.87 168.98,188.32 "/>
  <polygon class="fil16" points="164.3,185.64 149.16,207.13 150.53,208.1 165.68,186.61 "/>
  <polygon class="fil16" points="161.51,183.06 139.1,190.3 139.61,191.89 162.03,184.65 "/>
  <path class="fil17" d="M270.94 206.34c0,0 2.86,-5.62 -4.6,-8.2 -7.46,-2.57 -12.47,-8.75 -19.57,-12.25 -7.1,-3.5 -29.45,-10.6 -32.32,-7.14 -2.87,3.45 23.99,18.62 29.96,25.85 5.97,7.23 12.93,15.33 18.28,13.06 5.35,-2.27 8.25,-11.31 8.25,-11.31z"/>
  <path class="fil18" d="M271.28 205.41c0,0 -0.17,4.4 1.31,5.77 1.48,1.36 6.05,2.25 6.07,3.87 0.03,1.62 -5.54,1.99 -8.1,1.14 -2.56,-0.85 -3.79,-1.88 -3.79,-1.88 0,0 3.61,-5.41 4.51,-8.89z"/>
  <path class="fil19" d="M266.84 207.86c0,0 4.36,-3.44 -0.87,-6.19 -5.23,-2.75 -7.52,-5.54 -15.92,-10.65 -8.4,-5.1 -30.12,-11.96 -31.13,-11.21 -1.01,0.75 22.23,9.46 27.82,14.72 5.59,5.26 17.98,16.52 20.1,13.32z"/>
  <path class="fil17" d="M230.21 210.21c0,0 3.24,-5.41 -4.03,-8.49 -7.27,-3.08 -11.84,-9.58 -18.69,-13.56 -6.85,-3.98 -28.66,-12.58 -31.75,-9.33 -3.1,3.25 22.66,20.21 28.12,27.83 5.46,7.62 11.86,16.17 17.35,14.28 5.49,-1.9 9,-10.72 9,-10.72z"/>
  <path class="fil18" d="M230.61 209.29c0,0 -0.47,4.38 0.91,5.84 1.38,1.46 5.88,2.66 5.8,4.27 -0.08,1.61 -5.66,1.61 -8.16,0.58 -2.5,-1.03 -3.66,-2.13 -3.66,-2.13 0,0 3.97,-5.15 5.11,-8.56z"/>
  <path class="fil19" d="M226.02 211.44c0,0 4.59,-3.13 -0.45,-6.23 -5.03,-3.1 -7.12,-6.04 -15.15,-11.71 -8.03,-5.66 -29.23,-13.98 -30.29,-13.31 -1.06,0.68 21.53,10.96 26.75,16.59 5.22,5.63 16.81,17.71 19.14,14.66z"/>
  <path class="fil14" d="M107.83 165.47c-0.16,0.22 -0.32,0.43 -0.48,0.66 -9.52,13.51 -6.28,32.17 7.23,41.69 13.51,9.52 32.17,6.28 41.69,-7.23 0.16,-0.22 0.31,-0.45 0.46,-0.67l-48.9 -34.45z"/>
  <path class="fil15" d="M111.46 168.03c-0.16,0.22 -0.32,0.43 -0.48,0.65 -8.1,11.5 -5.35,27.4 6.15,35.5 11.5,8.1 27.4,5.35 35.5,-6.15 0.16,-0.22 0.31,-0.45 0.46,-0.67l-41.63 -29.33z"/>
  <polygon class="fil16" points="134.59,184.95 135.32,208.49 136.99,208.44 136.27,184.9 "/>
  <polygon class="fil16" points="131.59,182.22 116.45,203.71 117.82,204.68 132.96,183.18 "/>
  <polygon class="fil16" points="128.79,179.63 106.38,186.87 106.9,188.46 129.31,181.23 "/>
  <path class="fil19" d="M238.15 84.08c4.97,9.13 17.35,15.86 30.79,8.98 0.74,-0.38 1.23,-0.99 1.44,-1.79 0.21,-0.8 0.08,-1.58 -0.38,-2.27 -4.01,-6.03 -17.72,-31.62 -24.91,-30.45 -6.47,1.05 -11.92,16.41 -6.94,25.54z"/>
  <path class="fil17" d="M245.93 63.93c-2.93,0.82 -8.45,10.44 -2.66,19.74 5.8,9.3 19.23,8.19 21.43,6.3 1.56,-1.35 -15.84,-26.86 -18.77,-26.03z"/>
  <path class="fil20" d="M245.02 68.57c0.48,-0.24 1.06,-0.04 1.3,0.44 0.24,0.48 0.04,1.06 -0.44,1.3 -0.48,0.24 -1.06,0.04 -1.3,-0.44 -0.24,-0.48 -0.04,-1.06 0.44,-1.3z"/>
  <path class="fil20" d="M245.19 74.5c0.48,-0.24 1.06,-0.04 1.3,0.44 0.24,0.48 0.04,1.06 -0.44,1.3 -0.48,0.24 -1.06,0.04 -1.3,-0.44 -0.24,-0.48 -0.04,-1.06 0.44,-1.3z"/>
  <path class="fil20" d="M248.1 80.72c0.48,-0.24 1.06,-0.04 1.3,0.44 0.24,0.48 0.04,1.06 -0.44,1.3 -0.48,0.24 -1.06,0.04 -1.3,-0.44 -0.24,-0.48 -0.04,-1.06 0.44,-1.3z"/>
  <path class="fil20" d="M259.86 87.34c0.48,-0.24 1.06,-0.04 1.3,0.44 0.24,0.48 0.04,1.06 -0.44,1.3 -0.48,0.24 -1.06,0.04 -1.3,-0.44 -0.24,-0.48 -0.04,-1.06 0.44,-1.3z"/>
  <path class="fil20" d="M253.3 85.79c0.48,-0.24 1.06,-0.04 1.3,0.44 0.24,0.48 0.04,1.06 -0.44,1.3 -0.48,0.24 -1.06,0.04 -1.3,-0.44 -0.24,-0.48 -0.04,-1.06 0.44,-1.3z"/>
  <path class="fil19" d="M257.03 86.46c4.97,9.13 17.35,15.86 30.79,8.98 0.74,-0.38 1.23,-0.99 1.44,-1.79 0.21,-0.8 0.08,-1.58 -0.38,-2.27 -4.01,-6.03 -17.72,-31.62 -24.91,-30.45 -6.47,1.05 -11.92,16.41 -6.94,25.54z"/>
  <path class="fil17" d="M264.81 66.31c-2.93,0.82 -8.45,10.44 -2.66,19.74 5.8,9.3 19.23,8.19 21.43,6.3 1.56,-1.35 -15.84,-26.86 -18.77,-26.03z"/>
  <path class="fil20" d="M263.91 70.94c0.48,-0.24 1.06,-0.04 1.3,0.44 0.24,0.48 0.04,1.06 -0.44,1.3 -0.48,0.24 -1.06,0.04 -1.3,-0.44 -0.24,-0.48 -0.04,-1.06 0.44,-1.3z"/>
  <path class="fil20" d="M264.08 76.88c0.48,-0.24 1.06,-0.04 1.3,0.44 0.24,0.48 0.04,1.06 -0.44,1.3 -0.48,0.24 -1.06,0.04 -1.3,-0.44 -0.24,-0.48 -0.04,-1.06 0.44,-1.3z"/>
  <path class="fil20" d="M266.99 83.1c0.48,-0.24 1.06,-0.04 1.3,0.44 0.24,0.48 0.04,1.06 -0.44,1.3 -0.48,0.24 -1.06,0.04 -1.3,-0.44 -0.24,-0.48 -0.04,-1.06 0.44,-1.3z"/>
  <path class="fil20" d="M278.74 89.71c0.48,-0.24 1.06,-0.04 1.3,0.44 0.24,0.48 0.04,1.06 -0.44,1.3 -0.48,0.24 -1.06,0.04 -1.3,-0.44 -0.24,-0.48 -0.04,-1.06 0.44,-1.3z"/>
  <path class="fil20" d="M272.19 88.16c0.48,-0.24 1.06,-0.04 1.3,0.44 0.24,0.48 0.04,1.06 -0.44,1.3 -0.48,0.24 -1.06,0.04 -1.3,-0.44 -0.24,-0.48 -0.04,-1.06 0.44,-1.3z"/>
  <path class="fil19" d="M280.03 96.92c7.68,7 21.58,9.33 32.03,-1.57 0.58,-0.6 0.84,-1.34 0.78,-2.17 -0.06,-0.83 -0.44,-1.52 -1.1,-2.02 -5.76,-4.39 -27.08,-24.1 -33.49,-20.65 -5.77,3.11 -5.9,19.41 1.78,26.41z"/>
  <path class="fil17" d="M280.81 75.34c-2.51,1.74 -4.58,12.63 3.93,19.52 8.51,6.89 20.85,1.46 22.31,-1.04 1.04,-1.78 -23.74,-20.21 -26.24,-18.48z"/>
  <path class="fil20" d="M281.46 80.01c0.38,-0.38 0.99,-0.39 1.38,-0.01 0.38,0.38 0.39,0.99 0.01,1.38 -0.38,0.38 -0.99,0.39 -1.38,0.01 -0.38,-0.38 -0.39,-0.99 -0.01,-1.38z"/>
  <path class="fil20" d="M283.56 85.56c0.38,-0.38 0.99,-0.39 1.38,-0.01 0.38,0.38 0.39,0.99 0.01,1.38 -0.38,0.38 -0.99,0.39 -1.38,0.01 -0.38,-0.38 -0.39,-0.99 -0.01,-1.38z"/>
  <path class="fil20" d="M288.34 90.49c0.38,-0.38 0.99,-0.39 1.38,-0.01 0.38,0.38 0.39,0.99 0.01,1.38 -0.38,0.38 -0.99,0.39 -1.38,0.01 -0.38,-0.38 -0.39,-0.99 -0.01,-1.38z"/>
  <path class="fil20" d="M301.61 92.91c0.38,-0.38 0.99,-0.39 1.38,-0.01 0.38,0.38 0.39,0.99 0.01,1.38 -0.38,0.38 -0.99,0.39 -1.38,0.01 -0.38,-0.38 -0.39,-0.99 -0.01,-1.38z"/>
  <path class="fil20" d="M294.91 93.58c0.38,-0.38 0.99,-0.39 1.38,-0.01 0.38,0.38 0.39,0.99 0.01,1.38 -0.38,0.38 -0.99,0.39 -1.38,0.01 -0.38,-0.38 -0.39,-0.99 -0.01,-1.38z"/>
  <path class="fil10" d="M71.88 137.93c0,0 -15.95,-16.68 -41.34,-15.19 0,0 23.39,2.51 41.34,15.19z"/>
  <path class="fil10" d="M66.62 140.39c0,0 -20.48,1.16 -37.51,-17.73 0,0 15.82,14.15 37.51,17.73z"/>
  <path class="fil10" d="M67.93 138.51c0,0 -17.94,-10.02 -37.14,-15.29 0,0 22.27,11.59 37.14,15.29z"/>
  <path class="fil10" d="M73.88 147.94c0,0 -19.62,17.45 -48.34,14.33 0,0 26.8,-1.4 48.34,-14.33z"/>
  <path class="fil10" d="M66.7 146.37c0,0 -22.39,-3.23 -42.71,15.86 0,0 18.58,-14.02 42.71,-15.86z"/>
  <path class="fil10" d="M70.44 147.23c0,0 -21.78,10.1 -44.59,14.56 0,0 26.96,-11.55 44.59,-14.56z"/>
  <path class="fil10" d="M278.96 142.8c0,0 -25.13,3.44 -37.71,9.36 0,0 28.39,-5.67 37.71,-9.36z"/>
  <path class="fil10" d="M278.98 144.14c0,0 -15.14,5.48 -30.99,8.28 0,0 21.09,-0.08 30.99,-8.28z"/>
 </g>
</svg>
